<?xml version="1.0" encoding="utf-8"?>
<!-- Generator: Adobe Illustrator 25.1.0, SVG Export Plug-In . SVG Version: 6.00 Build 0)  -->
<svg version="1.1"
	 id="svg870" xmlns:cc="http://creativecommons.org/ns#" xmlns:dc="http://purl.org/dc/elements/1.1/" xmlns:inkscape="http://www.inkscape.org/namespaces/inkscape" xmlns:rdf="http://www.w3.org/1999/02/22-rdf-syntax-ns#" xmlns:sodipodi="http://sodipodi.sourceforge.net/DTD/sodipodi-0.dtd" xmlns:svg="http://www.w3.org/2000/svg"
	 xmlns="http://www.w3.org/2000/svg" xmlns:xlink="http://www.w3.org/1999/xlink" x="0px" y="0px" viewBox="0 0 512 512"
	 style="enable-background:new 0 0 512 512;" xml:space="preserve">
<style type="text/css">
	.st0{opacity:0.9981;fill:#F6D9C8;enable-background:new    ;}
	.st1{opacity:0.9981;fill:#D38D5F;enable-background:new    ;}
	.st2{opacity:0.9981;fill:#C8BEB7;enable-background:new    ;}
	.st3{opacity:0.9981;fill:#F2F2F2;enable-background:new    ;}
	.st4{fill:#FCDE76;}
	.st5{fill:#FACF57;}
	.st6{fill:#7B7980;}
	.st7{fill:#696578;}
	.st8{fill:#37ABC8;}
	.st9{fill:#2C89A0;}
	.st10{fill:#787485;}
	.st11{opacity:0.9981;fill:#7B7980;enable-background:new    ;}
</style>
<sodipodi:namedview  bordercolor="#666666" borderopacity="1.0" id="base" inkscape:current-layer="layer1" inkscape:cx="-21.808278" inkscape:cy="17.409639" inkscape:document-rotation="0" inkscape:document-units="mm" inkscape:pageopacity="0.0" inkscape:pageshadow="2" inkscape:window-height="664" inkscape:window-maximized="0" inkscape:window-width="1137" inkscape:window-x="169" inkscape:window-y="65" inkscape:zoom="5.1" pagecolor="#ffffff" showgrid="false" units="px">
	</sodipodi:namedview>
<g id="layer1" inkscape:groupmode="layer" inkscape:label="Layer 1">
	<ellipse id="path3781" class="st0" cx="256.6" cy="254.6" rx="246.9" ry="246"/>
	<g id="g3913" transform="matrix(0.91574759,0.69564556,-0.69564556,0.91574759,3.6346107,-1.2487747)">
		<path id="path3976" class="st1" d="M106.5,112.2c0.1,0.2,0.1,0.4,0.2,0.6c0.5,1.5,1,3,1.5,4.5c0.5,1.5,1.1,3,1.6,4.4
			c0.6,1.5,1.1,2.9,1.7,4.4c0.6,1.5,1.2,2.9,1.8,4.4c0.6,1.5,1.3,2.9,1.9,4.3c0.7,1.4,1.3,2.9,2,4.3c0.7,1.4,1.4,2.8,2.1,4.2
			c0.7,1.4,1.5,2.8,2.2,4.2c0.7,1.4,1.5,2.8,2.3,4.1c0.8,1.4,1.6,2.7,2.4,4.1c0.8,1.3,1.6,2.7,2.5,4c0.8,1.3,1.7,2.7,2.5,4
			c0.9,1.3,1.8,2.6,2.7,3.9c0.9,1.3,1.8,2.6,2.7,3.9c0.9,1.3,1.9,2.5,2.8,3.8c0.1,0.2,0.2,0.3,0.4,0.5c1,1.3,1.9,2.5,2.9,3.7
			c1,1.2,2,2.4,3,3.7c1,1.2,2,2.4,3.1,3.6c1,1.2,2.1,2.4,3.1,3.5c1.1,1.2,2.1,2.3,3.2,3.4c1.1,1.1,2.2,2.3,3.3,3.4
			c1.1,1.1,2.2,2.2,3.4,3.3c1.1,1.1,2.3,2.2,3.4,3.2c1.2,1.1,2.3,2.1,3.5,3.2c1.2,1,2.4,2.1,3.6,3.1c1.2,1,2.4,2,3.6,3
			c1.2,1,2.5,2,3.7,2.9c1.3,1,2.5,1.9,3.8,2.8c1.3,0.9,2.6,1.8,3.8,2.7c1.3,0.9,2.6,1.8,3.9,2.7c1.3,0.9,2.6,1.7,4,2.6
			c1.3,0.8,2.7,1.7,4,2.5c1.3,0.8,2.7,1.6,4.1,2.4c1.4,0.8,2.8,1.6,4.2,2.3c1.4,0.8,2.8,1.5,4.2,2.2c1.4,0.7,2.8,1.4,4.2,2.1
			c1.4,0.7,2.8,1.4,4.3,2c1.4,0.7,2.9,1.3,4.3,1.9c1.4,0.6,2.9,1.2,4.3,1.8c1.5,0.6,2.9,1.2,4.4,1.7c1.5,0.6,2.9,1.1,4.4,1.6
			c1.5,0.5,3,1,4.5,1.5c1.5,0.5,3,1,4.5,1.5c1.5,0.5,3,0.9,4.5,1.3c1.5,0.4,3,0.8,4.6,1.2c1.5,0.4,3,0.8,4.6,1.2
			c1.5,0.4,3.1,0.7,4.6,1c1.5,0.3,3.1,0.7,4.6,1c1.5,0.3,3.1,0.6,4.6,0.8c1.6,0.3,3.1,0.5,4.7,0.8c1.6,0.2,3.1,0.4,4.7,0.6
			c1.6,0.2,3.1,0.4,4.7,0.5c1.6,0.2,3.1,0.3,4.7,0.4c1.6,0.1,3.2,0.2,4.7,0.3c1.6,0.1,3.1,0.2,4.7,0.2c1.6,0,3.2,0.1,4.7,0.1
			c1.6,0,3.2,0,4.7,0c1.6,0,3.2-0.1,4.7-0.1c1.6,0,3.1-0.1,4.7-0.2c1.6-0.1,3.2-0.2,4.7-0.3c1.6-0.1,3.1-0.2,4.7-0.4
			c1.6-0.2,3.1-0.3,4.7-0.5c1.6-0.2,3.1-0.4,4.7-0.6c1.6-0.2,3.1-0.5,4.7-0.7c1.6-0.3,3.1-0.5,4.7-0.8c1.6-0.3,3.1-0.6,4.6-1
			c1.5-0.3,3.1-0.7,4.6-1c1.5-0.4,3.1-0.7,4.6-1.1c1.5-0.4,3.1-0.8,4.6-1.2c1.5-0.4,3-0.9,4.5-1.3c1.5-0.5,3-0.9,4.5-1.4
			c1.5-0.5,3-1,4.5-1.5c1.5-0.5,3-1.1,4.5-1.6c1.5-0.6,3-1.1,4.4-1.7c1.5-0.6,2.9-1.2,4.4-1.8c1.5-0.6,2.9-1.3,4.3-1.9
			c1.4-0.6,2.9-1.3,4.3-2c1.4-0.7,2.8-1.4,4.2-2.1c1.4-0.7,2.8-1.5,4.2-2.2c1.4-0.7,2.8-1.5,4.1-2.3c1.4-0.8,2.7-1.6,4.1-2.4
			c1.4-0.8,2.7-1.6,4-2.5c1.3-0.8,2.7-1.7,4-2.6c1.3-0.9,2.6-1.7,3.9-2.6c1.3-0.9,2.6-1.8,3.9-2.7c1.3-0.9,2.6-1.9,3.8-2.8
			c0.2-0.1,0.3-0.3,0.5-0.4c1.2-1,2.5-1.9,3.7-2.9c1.2-1,2.5-2,3.7-3c1.2-1,2.4-2.1,3.6-3.1c1.2-1,2.4-2.1,3.5-3.1
			c1.2-1.1,2.3-2.1,3.5-3.2c1.1-1.1,2.3-2.2,3.4-3.3c1.1-1.1,2.2-2.2,3.3-3.4c1.1-1.1,2.2-2.3,3.2-3.5c1.1-1.2,2.1-2.3,3.2-3.5
			c1-1.2,2.1-2.4,3.1-3.6c1-1.2,2-2.4,3-3.7c1-1.2,2-2.5,2.9-3.7c1-1.3,1.9-2.5,2.9-3.8c0.9-1.3,1.8-2.6,2.7-3.9
			c0.9-1.3,1.8-2.6,2.7-3.9c0.9-1.3,1.7-2.6,2.6-4c0.8-1.3,1.7-2.7,2.5-4c0.8-1.4,1.6-2.7,2.4-4.1c0.8-1.4,1.6-2.8,2.3-4.1
			c0.8-1.4,1.5-2.8,2.2-4.2c0.7-1.4,1.4-2.8,2.1-4.2c0.7-1.4,1.4-2.8,2.1-4.3c0.1-0.2,0.2-0.4,0.3-0.7L338.7-52.5
			c-11.6-13-31.4-14.1-44.5-2.5L106.5,112.2z"/>
		<path id="path3953" class="st2" d="M106.1,112.5c0.2,0.6,0.3,1.1,0.5,1.7c0.5,1.5,1,3,1.5,4.5c0.5,1.5,1.1,3,1.6,4.5
			c0.6,1.5,1.1,2.9,1.7,4.4c0.6,1.5,1.2,2.9,1.8,4.4c0.6,1.5,1.3,2.9,1.9,4.3c0.7,1.4,1.3,2.9,2,4.3c0.7,1.4,1.4,2.8,2.1,4.2
			c0.7,1.4,1.5,2.8,2.2,4.2c0.7,1.4,1.5,2.8,2.3,4.1c0.8,1.4,1.6,2.7,2.4,4.1c0.8,1.4,1.6,2.7,2.4,4c0.8,1.3,1.7,2.6,2.6,4
			c0.9,1.3,1.8,2.6,2.7,3.9c0.9,1.3,1.8,2.6,2.7,3.9c0.9,1.3,1.9,2.5,2.8,3.8c0.1,0.2,0.2,0.3,0.4,0.5c1,1.3,1.9,2.5,2.9,3.7
			c1,1.2,2,2.4,3,3.7c1,1.2,2,2.4,3.1,3.6c1,1.2,2.1,2.4,3.1,3.5c1.1,1.2,2.1,2.3,3.2,3.4c1.1,1.1,2.2,2.3,3.3,3.4
			c1.1,1.1,2.2,2.2,3.4,3.3c1.1,1.1,2.3,2.2,3.5,3.2c1.2,1.1,2.3,2.1,3.5,3.2c1.2,1,2.4,2.1,3.6,3.1c1.2,1,2.4,2,3.6,3
			c1.2,1,2.5,2,3.7,2.9c1.3,1,2.5,1.9,3.8,2.8c1.3,0.9,2.5,1.8,3.8,2.7c1.3,0.9,2.6,1.8,3.9,2.7c1.3,0.9,2.6,1.7,4,2.6
			c1.3,0.8,2.7,1.7,4,2.5c1.4,0.8,2.7,1.6,4.1,2.4c1.4,0.8,2.7,1.6,4.1,2.3c1.4,0.8,2.8,1.5,4.2,2.2c1.4,0.7,2.8,1.4,4.2,2.1
			c1.4,0.7,2.8,1.3,4.3,2c1.4,0.7,2.9,1.3,4.3,1.9c1.4,0.6,2.9,1.2,4.4,1.8c1.5,0.6,2.9,1.2,4.4,1.7c1.5,0.6,2.9,1.1,4.4,1.6
			c1.5,0.5,3,1,4.5,1.5c1.5,0.5,3,1,4.5,1.5c1.5,0.5,3,0.9,4.5,1.3c1.5,0.4,3,0.8,4.6,1.2c1.5,0.4,3.1,0.8,4.6,1.1
			c1.5,0.4,3.1,0.7,4.6,1.1c1.5,0.3,3.1,0.6,4.7,0.9c1.5,0.3,3.1,0.6,4.6,0.9c1.6,0.3,3.1,0.5,4.7,0.7c1.6,0.2,3.1,0.4,4.7,0.6
			c1.6,0.2,3.1,0.4,4.7,0.5c1.6,0.2,3.1,0.3,4.7,0.4c1.6,0.1,3.1,0.2,4.7,0.3c1.6,0.1,3.2,0.2,4.7,0.2c1.6,0.1,3.1,0.1,4.7,0.1
			c1.6,0,3.2,0,4.8,0c1.6,0,3.1-0.1,4.7-0.1c1.6-0.1,3.2-0.1,4.7-0.2c1.6-0.1,3.1-0.2,4.7-0.3c1.6-0.1,3.2-0.3,4.7-0.4
			c1.6-0.2,3.1-0.3,4.7-0.5c1.6-0.2,3.1-0.4,4.7-0.6c1.6-0.2,3.1-0.5,4.7-0.7c1.6-0.3,3.1-0.5,4.7-0.8c1.5-0.3,3.1-0.6,4.6-0.9
			c1.5-0.3,3.1-0.7,4.6-1c1.5-0.4,3.1-0.7,4.6-1.1c1.5-0.4,3.1-0.8,4.6-1.2c1.5-0.4,3-0.9,4.5-1.3c1.5-0.5,3-0.9,4.5-1.4
			c1.5-0.5,3-1,4.5-1.5c1.5-0.5,3-1.1,4.4-1.6c1.5-0.6,3-1.1,4.4-1.7c1.5-0.6,2.9-1.2,4.4-1.8c1.4-0.6,2.9-1.3,4.3-1.9
			c1.4-0.7,2.9-1.3,4.3-2c1.4-0.7,2.8-1.4,4.2-2.1c1.4-0.7,2.8-1.5,4.2-2.2c1.4-0.7,2.8-1.5,4.1-2.3c1.4-0.8,2.7-1.6,4.1-2.4
			c1.4-0.8,2.7-1.7,4.1-2.5c1.3-0.8,2.7-1.7,4-2.6c1.3-0.9,2.6-1.8,3.9-2.7c1.3-0.9,2.6-1.8,3.9-2.8c1.3-0.9,2.6-1.9,3.8-2.8
			c0.2-0.1,0.3-0.2,0.5-0.4c1.3-1,2.5-1.9,3.7-2.9c1.2-1,2.5-2,3.7-3c1.2-1,2.4-2.1,3.6-3.1c1.2-1,2.4-2.1,3.5-3.1
			c1.2-1.1,2.3-2.1,3.5-3.2c1.1-1.1,2.3-2.2,3.4-3.3c1.1-1.1,2.2-2.2,3.3-3.4c1.1-1.1,2.2-2.3,3.2-3.5c1.1-1.2,2.1-2.3,3.2-3.5
			c1.1-1.2,2.1-2.4,3.1-3.6c1-1.2,2-2.4,3-3.7c1-1.2,2-2.5,2.9-3.7c1-1.2,1.9-2.5,2.8-3.8c0.9-1.3,1.9-2.6,2.8-3.9
			c0.9-1.3,1.8-2.6,2.7-3.9c0.9-1.3,1.8-2.6,2.6-4c0.8-1.3,1.7-2.7,2.5-4c0.8-1.3,1.6-2.7,2.4-4.1c0.2-0.3,0.3-0.5,0.5-0.8
			L323.9-41.5c-11-12.4-29.9-13.4-42.3-2.4L106.1,112.5z"/>
		<path id="path3932" inkscape:connector-curvature="0" class="st3" d="M103.5,104.2c0.1,0.3,0.1,0.5,0.2,0.8c0.4,1.5,0.9,3,1.3,4.5
			c0.5,1.5,0.9,3,1.4,4.5c0.5,1.5,1,3,1.5,4.4c0.5,1.5,1.1,3,1.6,4.5c0.6,1.5,1.1,2.9,1.7,4.4c0.6,1.5,1.2,2.9,1.8,4.3
			c0.6,1.5,1.3,2.9,1.9,4.3c0.7,1.4,1.3,2.9,2,4.3c0.7,1.4,1.4,2.8,2.1,4.2c0.7,1.4,1.5,2.8,2.2,4.2c0.7,1.4,1.5,2.8,2.3,4.1
			c0.8,1.4,1.6,2.7,2.4,4.1c0.8,1.4,1.6,2.7,2.4,4c0.8,1.3,1.7,2.7,2.6,4c0.9,1.3,1.7,2.6,2.6,3.9c0.9,1.3,1.8,2.6,2.7,3.9
			c0.9,1.3,1.9,2.5,2.8,3.8c0.1,0.2,0.3,0.3,0.4,0.5c1,1.3,1.9,2.5,2.9,3.7c1,1.2,2,2.4,3,3.6c1,1.2,2,2.4,3.1,3.6
			c1,1.2,2.1,2.4,3.1,3.5c1.1,1.2,2.2,2.3,3.3,3.5c1.1,1.1,2.2,2.2,3.3,3.4c1.1,1.1,2.2,2.2,3.4,3.3c1.1,1.1,2.3,2.2,3.5,3.2
			c1.2,1.1,2.3,2.1,3.5,3.2c1.2,1,2.4,2.1,3.6,3.1c1.2,1,2.4,2,3.7,3c1.2,1,2.5,2,3.7,2.9c1.3,1,2.5,1.9,3.8,2.8
			c1.3,0.9,2.5,1.8,3.8,2.7c1.3,0.9,2.6,1.8,3.9,2.7c1.3,0.9,2.6,1.7,4,2.6c1.3,0.8,2.7,1.7,4,2.5c1.4,0.8,2.7,1.6,4.1,2.4
			c1.4,0.8,2.7,1.6,4.1,2.3c1.4,0.8,2.8,1.5,4.2,2.2c1.4,0.7,2.8,1.4,4.2,2.1c1.4,0.7,2.9,1.4,4.3,2c1.4,0.7,2.9,1.3,4.3,1.9
			c1.4,0.6,2.9,1.2,4.4,1.8c1.5,0.6,2.9,1.2,4.4,1.7c1.5,0.6,2.9,1.1,4.4,1.6c1.5,0.5,3,1.1,4.5,1.6c1.5,0.5,3,1,4.5,1.4
			c1.5,0.5,3,0.9,4.5,1.3c1.5,0.4,3,0.8,4.6,1.2c1.5,0.4,3.1,0.8,4.6,1.1c1.5,0.4,3.1,0.7,4.6,1.1c1.5,0.3,3.1,0.6,4.7,0.9
			c1.5,0.3,3.1,0.6,4.6,0.9c1.6,0.3,3.1,0.5,4.7,0.7c1.6,0.2,3.1,0.4,4.7,0.6c1.6,0.2,3.1,0.4,4.7,0.5c1.6,0.2,3.1,0.3,4.7,0.4
			c1.6,0.1,3.1,0.2,4.7,0.3c1.6,0.1,3.2,0.2,4.7,0.2c1.6,0.1,3.2,0.1,4.7,0.1c1.6,0,3.2,0,4.7,0c1.6,0,3.2,0,4.7-0.1
			c1.6-0.1,3.2-0.1,4.7-0.2c1.6-0.1,3.1-0.2,4.7-0.3c1.6-0.1,3.1-0.3,4.7-0.4c1.6-0.2,3.2-0.3,4.7-0.5c1.6-0.2,3.1-0.4,4.7-0.6
			c1.6-0.2,3.1-0.5,4.7-0.7c1.6-0.3,3.1-0.5,4.7-0.8c1.5-0.3,3.1-0.6,4.6-0.9c1.5-0.3,3.1-0.7,4.6-1c1.5-0.4,3.1-0.7,4.6-1.1
			c1.5-0.4,3.1-0.8,4.6-1.2c1.5-0.4,3-0.9,4.5-1.3c1.5-0.5,3-0.9,4.5-1.4c1.5-0.5,3-1,4.5-1.5c1.5-0.5,3-1.1,4.4-1.6
			c1.5-0.6,3-1.1,4.4-1.7c1.5-0.6,2.9-1.2,4.4-1.8c1.4-0.6,2.9-1.3,4.3-1.9c1.4-0.7,2.9-1.3,4.3-2c1.4-0.7,2.8-1.4,4.2-2.1
			c1.4-0.7,2.8-1.5,4.2-2.2c1.4-0.8,2.8-1.5,4.1-2.3c1.4-0.8,2.7-1.6,4.1-2.4c1.4-0.8,2.7-1.7,4.1-2.5c1.3-0.8,2.7-1.7,4-2.6
			c1.3-0.9,2.6-1.8,3.9-2.7c1.3-0.9,2.6-1.8,3.9-2.8c1.3-0.9,2.6-1.9,3.8-2.8c0.2-0.1,0.3-0.2,0.5-0.4c1.3-1,2.5-1.9,3.7-2.9
			c1.2-1,2.5-2,3.7-3c1.2-1,2.4-2.1,3.6-3.1c1.2-1,2.4-2.1,3.5-3.1c1.2-1.1,2.3-2.1,3.5-3.2c1.1-1.1,2.3-2.2,3.4-3.3
			c1.1-1.1,2.2-2.2,3.3-3.4c1.1-1.1,2.2-2.3,3.2-3.4c1.1-1.2,2.1-2.3,3.2-3.5c1-1.2,2.1-2.4,3.1-3.6c1-1.2,2-2.4,3-3.7
			c1-1.2,2-2.5,2.9-3.7c1-1.2,1.9-2.5,2.8-3.8c0.9-1.3,1.9-2.6,2.8-3.8c0.9-1.3,1.8-2.6,2.6-3.9c0.9-1.3,1.8-2.6,2.6-4
			c0-0.1,0.1-0.1,0.1-0.2L311.4-40.9c-11-12.4-29.9-13.4-42.3-2.4L103.5,104.2z"/>
	</g>
	<g id="g3874" transform="matrix(-0.00881284,0,0,0.00881284,6.9928734,0.6655909)">
		<path id="path3783" inkscape:connector-curvature="0" class="st4" d="M245.1,283.1l-34.8-34.7c-1-1-2.3-1.4-3.7-1.3
			c-1.4,0.1-2.6,0.8-3.4,2c-19.2,27.9-40.4,74.3-41.3,76.2c-0.8,1.7-0.4,3.8,0.9,5.1c0.9,0.9,2,1.3,3.2,1.3c0.6,0,1.3-0.1,1.9-0.4
			c2-0.9,48.5-22.1,76.5-41.2c1.1-0.8,1.8-2,2-3.3S246,284.1,245.1,283.1z"/>
		<path id="path3785" inkscape:connector-curvature="0" class="st5" d="M245.1,283.1l-7.7-7.7c1,1,1.4,2.3,1.3,3.6
			c-0.1,1.4-0.8,2.6-2,3.3c-24.2,16.6-62.3,34.6-73.4,39.8c-0.8,1.7-1.3,2.8-1.4,3.1c-0.8,1.7-0.4,3.8,0.9,5.1
			c0.9,0.9,2,1.3,3.2,1.3c0.6,0,1.3-0.1,1.9-0.4c2-0.9,48.5-22.1,76.5-41.2c1.1-0.8,1.8-2,2-3.3C246.5,285.4,246,284.1,245.1,283.1z
			"/>
		<path id="path3787" inkscape:connector-curvature="0" class="st6" d="M176.8,294.8c-8.6,16.7-14.8,30.4-14.9,30.5
			c-0.8,1.7-0.4,3.8,0.9,5.1c0.9,0.9,2,1.3,3.2,1.3c0.6,0,1.3-0.1,1.9-0.4c0.1-0.1,13.8-6.3,30.6-14.8"/>
		<path id="path3789" inkscape:connector-curvature="0" class="st7" d="M190.8,308.7c-12.8,6.5-23.3,12.1-27.9,14.2
			c-0.7,1.4-1,2.2-1,2.2c-0.8,1.7-0.4,3.8,0.9,5.1c0.9,0.9,2,1.3,3.2,1.3c0.6,0,1.3-0.1,1.9-0.4c0.1-0.1,13.8-6.3,30.6-14.8
			L190.8,308.7z"/>
		<path id="path3791" inkscape:connector-curvature="0" class="st8" d="M437,57.1c-8.5-8.5-27.8-2.4-59.1,18.6
			c-28.2,18.9-62,47.6-95.3,80.8s-62.1,66.9-81.1,95c-0.5,0.7-1,1.4-1.4,2.1l39.7,39.6c0.7-0.5,1.4-0.9,2.2-1.4
			c28.2-18.9,62-47.6,95.3-80.8c33.3-33.2,62.1-66.9,81.1-95C439.4,84.8,445.5,65.6,437,57.1z"/>
		<g id="g3797">
			<path id="path3793" inkscape:connector-curvature="0" class="st9" d="M437,57.1c-1.5-1.5-3.3-2.5-5.5-3.1
				c2.8,10.1-4.4,27.7-21.8,53.4c-19,28.1-47.8,61.8-81.1,95c-15.2,15.1-30.4,29.3-45.2,42l8.6,8.6c-6.1,5.3,23.8-20.7,45.2-42
				c33.3-33.2,62.1-66.9,81.1-95C439.4,84.8,445.5,65.6,437,57.1z"/>
			<path id="path3795" inkscape:connector-curvature="0" class="st9" d="M233.4,283.2c-0.7,0.5-1.4,1-2.2,1.4l8.6,8.6
				c0.7-0.5,1.4-0.9,2.2-1.4c10-6.7,20.8-14.7,32-23.7l-8.6-8.6C254.2,268.5,243.4,276.4,233.4,283.2z"/>
		</g>
		<path id="path3799" inkscape:connector-curvature="0" class="st10" d="M240.5,201.6c-5.3,6.1-10.3,12.1-15.1,18l40,39.9
			c5.9-4.7,12-9.8,18.1-15L240.5,201.6z"/>
		<path id="path3801" inkscape:connector-curvature="0" class="st7" d="M283.5,244.4c-6.1,5.3-12.2,10.3-18.1,15l8.6,8.6
			c0,0,0,0,0,0c5.9-4.7,12-9.8,18.1-15L283.5,244.4z"/>
		<path id="path3803" inkscape:connector-curvature="0" class="st4" d="M443.9,50.2L443.9,50.2c-9.5-9.4-24.6-13.9-64.6,24.7
			c-0.9,0.8-1.4,2-1.4,3.2c0,1.2,0.5,2.4,1.3,3.3l33.4,33.3c0.9,0.9,2.1,1.3,3.2,1.3c1.1,0,2.2-0.4,3.1-1.2
			c21.8-20.1,32.6-35.8,32.8-47.9C452,58.2,446.9,53.2,443.9,50.2z"/>
		<path id="path3805" inkscape:connector-curvature="0" class="st5" d="M443.9,50.2L443.9,50.2c-1-1-2.1-2-3.3-2.9
			c2.2,3,4.2,7,4.1,12.4c-0.2,12.1-11,27.8-32.8,47.9c-0.9,0.8-2,1.2-3.1,1.2c-1.2,0-2.3-0.4-3.2-1.3l7.2,7.1
			c0.9,0.9,2.1,1.3,3.2,1.3c1.1,0,2.2-0.4,3.1-1.2c21.8-20.1,32.6-35.8,32.8-47.9C452,58.2,446.9,53.2,443.9,50.2z"/>
		<path id="path3807" inkscape:connector-curvature="0" class="st10" d="M374.9,225.6c1.7,0,3.3-0.9,4.1-2.5c1.1-2.3,0.2-5-2-6.1
			c-3.5-1.8-7.8-4.6-7.9-8.4c-0.2-3.9,4-8.5,8.2-11c36-21.5,54.3-42.4,54.3-62.1c0-13.5-9.8-23.3-13-26.5l-38.5-38.4
			c-1.8-1.8-4.7-1.8-6.5,0c-1.8,1.8-1.8,4.7,0,6.5l38.5,38.4c6.9,6.9,10.3,13.5,10.3,20c0,16-17.2,34.8-49.8,54.3
			c-6,3.6-13,10.8-12.7,19.2c0.2,4.5,2.6,11,13,16.2C373.5,225.5,374.2,225.6,374.9,225.6z"/>
		<g id="g3809">
		</g>
		<g id="g3811">
		</g>
		<g id="g3813">
		</g>
		<g id="g3815">
		</g>
		<g id="g3817">
		</g>
		<g id="g3819">
		</g>
		<g id="g3821">
		</g>
		<g id="g3823">
		</g>
		<g id="g3825">
		</g>
		<g id="g3827">
		</g>
		<g id="g3829">
		</g>
		<g id="g3831">
		</g>
		<g id="g3833">
		</g>
		<g id="g3835">
		</g>
		<g id="g3837">
		</g>
	</g>
	<path id="path3979" inkscape:connector-curvature="0" class="st11" d="M6.6,3.6C6.7,3.6,6.6,3.6,6.6,3.6C6.8,3.7,6.7,3.6,6.6,3.6
		C6.6,3.6,6.6,3.6,6.6,3.6c-0.1,0-0.1-0.1-0.2,0c0,0,0,0,0,0c0,0-0.1,0.1-0.1,0.1c0,0-0.1,0-0.1,0c-0.1,0-0.1,0-0.2-0.1
		c-0.1,0-0.1,0-0.2-0.1c0,0-0.1,0-0.1,0c0,0,0,0-0.1,0c0,0,0,0,0,0c0,0,0,0,0,0c0,0,0,0,0,0L5.5,3.5l0,0c0,0,0,0,0,0c0,0,0,0,0,0
		c0,0,0,0,0,0c0,0,0,0,0.1,0c0,0,0.1,0,0.1,0c0.1,0,0.1,0,0.2,0.1c0.1,0,0.1,0,0.2,0.1c0,0,0.1,0,0.1,0c0,0,0.1-0.1,0.1-0.1
		c0,0,0,0,0,0C6.4,3.5,6.5,3.5,6.6,3.6C6.6,3.6,6.7,3.6,6.6,3.6L6.6,3.6L6.6,3.6z"/>
	<path id="path3989" inkscape:connector-curvature="0" class="st11" d="M6.7,3.2C6.7,3.2,6.7,3.1,6.7,3.2C6.8,3.2,6.7,3.2,6.7,3.2
		C6.7,3.2,6.7,3.2,6.7,3.2c-0.1,0-0.2,0-0.3,0c0,0-0.1,0-0.1,0c0,0,0,0,0,0c0,0,0,0,0,0l-0.1,0l0,0c0,0,0,0,0,0c0,0,0,0,0,0
		c0,0,0.1,0,0.1,0c0.1,0,0.1,0.1,0.2,0C6.6,3.1,6.6,3.1,6.7,3.2C6.7,3.1,6.7,3.1,6.7,3.2C6.7,3.2,6.8,3.2,6.7,3.2L6.7,3.2L6.7,3.2z"
		/>
	<path id="path3991" inkscape:connector-curvature="0" class="st11" d="M5.9,3.1c-0.1,0-0.2,0-0.3,0c0,0-0.1,0-0.1,0
		c0,0-0.1,0-0.1,0L5.4,3l0,0c0,0,0.1,0,0.1,0c0,0,0.1,0,0.1,0C5.7,3,5.8,3.1,5.9,3.1C5.9,3.1,5.9,3.1,5.9,3.1z"/>
</g>
</svg>
